<svg width="28" height="28" viewBox="0 0 28 28" fill="none" xmlns="http://www.w3.org/2000/svg">
<rect width="28" height="28" fill="#F5F5F5"/>
<g clip-path="url(#clip0_0_1)">
<rect width="1920" height="5134" transform="translate(-338 -1830)" fill="white"/>
<g filter="url(#filter0_d_0_1)">
<rect x="-143" y="-378" width="490" height="457" rx="14" fill="white"/>
</g>
<path d="M5.25 5.5C3.45507 5.5 2 6.95508 2 8.75V19.25C2 21.0449 3.45507 22.5 5.25 22.5H15.7523C17.5472 22.5 19.0023 21.0449 19.0023 19.25V17.6707L23.5434 20.7824C24.3729 21.3508 25.4999 20.7568 25.4999 19.7512V8.24842C25.4999 7.24298 24.3732 6.64898 23.5436 7.21708L19.0023 10.3272V8.75C19.0023 6.95508 17.5472 5.5 15.7523 5.5H5.25ZM19.0023 15.8524V12.1452L23.9999 8.72263V19.2769L19.0023 15.8524ZM17.5023 8.75V19.25C17.5023 20.2165 16.7187 21 15.7523 21H5.25C4.2835 21 3.5 20.2165 3.5 19.25V8.75C3.5 7.7835 4.2835 7 5.25 7H15.7523C16.7188 7 17.5023 7.7835 17.5023 8.75Z" fill="#212121"/>
</g>
<defs>
<filter id="filter0_d_0_1" x="-168" y="-399" width="540" height="507" filterUnits="userSpaceOnUse" color-interpolation-filters="sRGB">
<feFlood flood-opacity="0" result="BackgroundImageFix"/>
<feColorMatrix in="SourceAlpha" type="matrix" values="0 0 0 0 0 0 0 0 0 0 0 0 0 0 0 0 0 0 127 0" result="hardAlpha"/>
<feOffset dy="4"/>
<feGaussianBlur stdDeviation="12.5"/>
<feComposite in2="hardAlpha" operator="out"/>
<feColorMatrix type="matrix" values="0 0 0 0 0 0 0 0 0 0 0 0 0 0 0 0 0 0 0.1 0"/>
<feBlend mode="normal" in2="BackgroundImageFix" result="effect1_dropShadow_0_1"/>
<feBlend mode="normal" in="SourceGraphic" in2="effect1_dropShadow_0_1" result="shape"/>
</filter>
<clipPath id="clip0_0_1">
<rect width="1920" height="5134" fill="white" transform="translate(-338 -1830)"/>
</clipPath>
</defs>
</svg>
